<svg class="animated" id="freepik_stories-kids-studying-from-home" xmlns="http://www.w3.org/2000/svg" xmlns:xlink="http://www.w3.org/1999/xlink" viewBox="0 0 500 500" version="1.1" xmlns:svgjs="http://svgjs.com/svgjs"><style>svg#freepik_stories-kids-studying-from-home:not(.animated) .animable {opacity: 0;}svg#freepik_stories-kids-studying-from-home.animated #freepik--background-simple--inject-360 {animation: 2.5s 1 forwards cubic-bezier(.36,-0.01,.5,1.38) fadeIn,1.5s Infinite  linear floating;animation-delay: 0s,2.5s;}svg#freepik_stories-kids-studying-from-home.animated #freepik--Pictures--inject-360 {animation: 2.5s 1 forwards cubic-bezier(.36,-0.01,.5,1.38) fadeIn,1.5s Infinite  linear floating;animation-delay: 0s,2.5s;}svg#freepik_stories-kids-studying-from-home.animated #freepik--Plants--inject-360 {animation: 2.5s 1 forwards cubic-bezier(.36,-0.01,.5,1.38) fadeIn,1.5s Infinite  linear floating;animation-delay: 0s,2.5s;}svg#freepik_stories-kids-studying-from-home.animated #freepik--Books--inject-360 {animation: 2.5s 1 forwards cubic-bezier(.36,-0.01,.5,1.38) fadeIn,1.5s Infinite  linear floating;animation-delay: 0s,2.5s;}svg#freepik_stories-kids-studying-from-home.animated #freepik--Bookshelf--inject-360 {animation: 2.5s 1 forwards cubic-bezier(.36,-0.01,.5,1.38) fadeIn,1.5s Infinite  linear floating;animation-delay: 0s,2.5s;}svg#freepik_stories-kids-studying-from-home.animated #freepik--Desk--inject-360 {animation: 2.5s 1 forwards cubic-bezier(.36,-0.01,.5,1.38) fadeIn,1.5s Infinite  linear floating;animation-delay: 0s,2.5s;}svg#freepik_stories-kids-studying-from-home.animated #freepik--character-1--inject-360 {animation: 2.5s 1 forwards cubic-bezier(.36,-0.01,.5,1.38) fadeIn,1.5s Infinite  linear floating;animation-delay: 0s,2.5s;}svg#freepik_stories-kids-studying-from-home.animated #freepik--character-2--inject-360 {animation: 2.5s 1 forwards cubic-bezier(.36,-0.01,.5,1.38) fadeIn,1.5s Infinite  linear floating;animation-delay: 0s,2.5s;}svg#freepik_stories-kids-studying-from-home.animated #freepik--Device--inject-360 {animation: 2.5s 1 forwards cubic-bezier(.36,-0.01,.5,1.38) fadeIn,1.5s Infinite  linear floating;animation-delay: 0s,2.5s;}            @keyframes fadeIn {                0% {                    opacity: 0;                }                100% {                    opacity: 1;                }            }                    @keyframes floating {                0% {                    opacity: 1;                    transform: translateY(0px);                }                50% {                    transform: translateY(-10px);                }                100% {                    opacity: 1;                    transform: translateY(0px);                }            }        </style><g id="freepik--background-simple--inject-360" class="animable animator-active" style="transform-origin: 242.728px 217.397px;"><path d="M459.34,237.11c2.25-29.86-4.7-61-14-88.84-13.82-41.29-40.66-83.63-85.85-93.4-26.06-5.64-52.57.4-74.91,14.52-21.49,13.58-38.25,31.12-64.65,34.52-26.72,3.44-54.14,2-81,2-69,0-125.09,72.55-111.08,148.11s80.06,128,136.1,128c50.36,0,91.79-30.22,139.62-38.33,23.72-4,47.54.74,71-5.29,27.28-7,52.94-23.72,68.05-47.93C452.92,274,457.93,255.81,459.34,237.11Z" style="fill: rgb(146, 227, 169); transform-origin: 242.728px 217.397px;" id="el3bgt4qz7xb5" class="animable"></path><g id="elhtnxnb2bfa"><path d="M459.34,237.11c2.25-29.86-4.7-61-14-88.84-13.82-41.29-40.66-83.63-85.85-93.4-26.06-5.64-52.57.4-74.91,14.52-21.49,13.58-38.25,31.12-64.65,34.52-26.72,3.44-54.14,2-81,2-69,0-125.09,72.55-111.08,148.11s80.06,128,136.1,128c50.36,0,91.79-30.22,139.62-38.33,23.72-4,47.54.74,71-5.29,27.28-7,52.94-23.72,68.05-47.93C452.92,274,457.93,255.81,459.34,237.11Z" style="fill: rgb(255, 255, 255); opacity: 0.7; transform-origin: 242.728px 217.397px;" class="animable"></path></g></g><g id="freepik--Pictures--inject-360" class="animable animator-active" style="transform-origin: 276.575px 187.74px;"><rect x="172.3" y="125.84" width="73.61" height="102.05" style="fill: none; stroke: rgb(38, 50, 56); stroke-miterlimit: 10; stroke-width: 1.25474px; transform-origin: 209.105px 176.865px;" id="elo46gsluw5a" class="animable"></rect><rect x="181.35" y="138.39" width="55.51" height="76.96" style="fill: none; stroke: rgb(38, 50, 56); stroke-miterlimit: 10; stroke-width: 1.25474px; transform-origin: 209.105px 176.87px;" id="elmrdst1ct8nn" class="animable"></rect><rect x="329.56" y="178.54" width="51.29" height="71.1" style="fill: none; stroke: rgb(38, 50, 56); stroke-miterlimit: 10; stroke-width: 1.25474px; transform-origin: 355.205px 214.09px;" id="elw7hemxuelfm" class="animable"></rect><rect x="335.87" y="187.28" width="38.68" height="53.62" style="fill: none; stroke: rgb(38, 50, 56); stroke-miterlimit: 10; stroke-width: 1.25474px; transform-origin: 355.21px 214.09px;" id="elztvk70fi1r" class="animable"></rect></g><g id="freepik--Plants--inject-360" class="animable animator-active" style="transform-origin: 426.807px 336.003px;"><path d="M446.66,313.18s1-3.56,1-3.79c.38-2.7-.48-8.14-3.23-9.47a3.61,3.61,0,0,0-4.91,2.18c-.74,2,.19,4.51,1.3,6.22C442.12,310.32,446.65,313.18,446.66,313.18Z" style="fill: rgb(38, 50, 56); transform-origin: 443.5px 306.392px;" id="elb5iyl7e1cqf" class="animable"></path><path d="M392.46,312c2.19,1,7.55.84,7.56.84s-1.16-3.51-1.26-3.72c-1.17-2.46-4.89-6.52-7.92-6.11a3.6,3.6,0,0,0-2.89,4.52C388.45,309.63,390.6,311.19,392.46,312Z" style="fill: rgb(38, 50, 56); transform-origin: 393.919px 307.915px;" id="eldn0jhsinlgk" class="animable"></path><path d="M400.78,301.14l.05,0c-.12.86-.24,1.78-.35,2.8-.18,1.87-.37,4-.43,6.3a64.11,64.11,0,0,0,.18,7.49,47.37,47.37,0,0,0,1.39,8.26l0,.09c-.48-.75-1.9-2.82-2-3-1.79-2.06-6.44-5-9.25-3.81a3.61,3.61,0,0,0-1.6,5.14c1,1.88,3.52,2.82,5.53,3.11,2.27.33,7.06-1,7.44-1.17a62,62,0,0,0,2.9,8c.65,1.52,1.36,3,2.1,4.54-.44-.64-.84-1.2-.9-1.28-1.78-2.06-6.44-5-9.25-3.8A3.61,3.61,0,0,0,395,339c1,1.89,3.52,2.82,5.54,3.12s6.14-.81,7.22-1.11c.29.57.57,1.15.86,1.73,1.38,2.75,2.78,5.5,4.06,8.23.45,1,.86,1.93,1.28,2.9-.39-.57-.72-1-.78-1.11-1.78-2.06-6.44-5-9.25-3.8a3.61,3.61,0,0,0-1.6,5.13c1,1.89,3.52,2.82,5.54,3.11s5.74-.69,7-1.05c.39,1,.79,2,1.13,3,.21.68.47,1.32.64,2s.38,1.36.57,2c.31,1.31.65,2.65.92,3.93.2.89.37,1.74.54,2.6-.44-1-1.34-2.84-1.43-3-1.45-2.3-5.61-5.91-8.57-5.16a3.62,3.62,0,0,0-2.36,4.83c.74,2,3.05,3.33,5,3.92,2.14.66,6.89.06,7.48,0,.29,1.42.55,2.8.78,4.11.72,4.11,1.19,7.62,1.51,10.22h2.05c-.37-2.65-.93-6.27-1.78-10.55-.29-1.44-.62-3-1-4.55a39.58,39.58,0,0,0,4.17-2c1.56,1.69,5.57,3.67,6.08,3.92-.54,1.34-1.08,2.64-1.61,3.85-1.65,3.8-3.18,6.95-4.35,9.29H427c1.06-2.28,2.37-5.18,3.76-8.58.56-1.36,1.13-2.82,1.7-4.33.58.12,5.27,1.07,7.46.58,2-.45,4.39-1.57,5.28-3.54a3.61,3.61,0,0,0-2-5c-2.89-1-7.31,2.32-8.93,4.51-.09.13-1,1.65-1.51,2.62.23-.62.46-1.22.69-1.86.46-1.25.88-2.52,1.34-3.89.2-.66.41-1.34.61-2s.36-1.4.54-2.11c.4-1.65.71-3.35,1-5.06,1.1.4,5,1.77,7.08,1.63s4.58-.89,5.75-2.7a3.61,3.61,0,0,0-1.21-5.23c-2.71-1.4-7.58,1.18-9.51,3.1-.12.12-1.35,1.65-2,2.51.16-1,.33-2.06.46-3.11.37-3,.66-6.1,1-9.17.09-.94.19-1.87.29-2.81.39.15,5,1.88,7.32,1.72,2-.14,4.58-.89,5.76-2.69a3.61,3.61,0,0,0-1.22-5.24c-2.71-1.4-7.57,1.18-9.51,3.1-.14.15-1.91,2.36-2.33,2.94.22-2.06.45-4.11.77-6.13a62.2,62.2,0,0,1,1.76-8.06c.18.07,5,1.9,7.36,1.73,2-.14,4.58-.88,5.75-2.69a3.62,3.62,0,0,0-1.21-5.24c-2.71-1.4-7.58,1.18-9.51,3.11-.13.12-1.47,1.8-2.1,2.62l-.15-.08a46.82,46.82,0,0,1,3.2-7.65c.69-1.36,1.43-2.62,2.18-3.83.87.43,4.85,2.37,7,2.45s4.65-.38,6-2.05a3.6,3.6,0,0,0-.63-5.33c-2.55-1.69-7.66.34-9.8,2-.11.09-1.19,1.16-2,1.95.35-.54.69-1.11,1-1.62,1.27-1.92,2.56-3.6,3.71-5.08.67-.84,1.28-1.58,1.86-2.27,1.08,0,5.39-.15,7.28-1s4-2.48,4.4-4.59a3.62,3.62,0,0,0-3-4.45c-3-.32-6.64,3.84-7.75,6.33-.1.21-1.21,3.75-1.15,3.75h.06c-.57.65-1.18,1.36-1.83,2.14-1.19,1.46-2.52,3.12-3.84,5a63.68,63.68,0,0,0-4,6.34,47.43,47.43,0,0,0-3.4,7.66l0,.09c0-.89,0-3.39-.05-3.58-.35-2.71-2.61-7.72-5.61-8.28a3.61,3.61,0,0,0-4.17,3.4c-.18,2.15,1.38,4.3,2.9,5.65,1.71,1.53,6.47,3,6.84,3.13a63.9,63.9,0,0,0-2,8.29c-.3,1.63-.54,3.29-.76,4.95,0-.77,0-1.47,0-1.56-.35-2.71-2.62-7.72-5.62-8.28a3.61,3.61,0,0,0-4.16,3.4c-.18,2.15,1.38,4.3,2.9,5.65s5.56,2.72,6.63,3.07l-.24,1.91c-.36,3.06-.72,6.12-1.15,9.11-.16,1.05-.35,2.08-.53,3.12,0-.69,0-1.27,0-1.36-.35-2.7-2.62-7.72-5.62-8.27a3.6,3.6,0,0,0-4.16,3.4c-.18,2.14,1.38,4.29,2.9,5.65s5.17,2.59,6.44,3c-.22,1.05-.44,2.11-.7,3.12-.2.68-.34,1.35-.58,2s-.43,1.35-.64,2c-.46,1.26-.93,2.56-1.41,3.78-.32.85-.65,1.65-1,2.46.16-1,.44-3.1.44-3.27a14,14,0,0,0-1.88-6.83,3.5,3.5,0,0,0-.05-.79,3.6,3.6,0,0,0-4.41-3.07c-2.95.79-4.82,6-5,8.69,0,.16.09,1.91.18,3-.15-.64-.29-1.26-.45-1.92-.31-1.31-.65-2.6-1-4-.2-.67-.41-1.34-.61-2s-.48-1.37-.72-2.06c-.58-1.6-1.25-3.19-2-4.77,1.14-.28,5.19-1.31,6.81-2.55s3.33-3.27,3.31-5.42a3.61,3.61,0,0,0-3.9-3.7c-3,.33-5.67,5.16-6.22,7.83,0,.17-.21,2.13-.29,3.21-.44-.95-.86-1.9-1.33-2.85-1.36-2.73-2.82-5.45-4.26-8.17l-1.31-2.51c.41-.09,5.24-1.21,7.06-2.61,1.61-1.24,3.32-3.26,3.31-5.42a3.62,3.62,0,0,0-3.9-3.7c-3,.33-5.67,5.17-6.22,7.84,0,.2-.3,3-.33,3.74-.95-1.84-1.89-3.68-2.74-5.54a65.09,65.09,0,0,1-3-7.69c.19,0,5.24-1.19,7.1-2.62,1.62-1.24,3.33-3.27,3.31-5.42a3.61,3.61,0,0,0-3.9-3.7c-3,.33-5.67,5.16-6.22,7.83,0,.18-.23,2.33-.3,3.35l-.17,0a45.56,45.56,0,0,1-1.55-8.15c-.18-1.52-.25-3-.3-4.4,1-.11,5.35-.7,7.17-1.8s3.67-2.88,3.89-5a3.62,3.62,0,0,0-3.47-4.11c-3.06,0-6.2,4.51-7,7.11-.05.14-.36,1.62-.56,2.71,0-.64,0-1.31,0-1.92,0-2.31.15-4.42.29-6.29.09-1.07.19-2,.3-2.92.88-.61,4.41-3.1,5.5-4.88s1.93-4.25,1.14-6.26a3.62,3.62,0,0,0-5-2c-2.71,1.4-3.42,6.86-3,9.55C399.71,297.6,400.73,301.17,400.78,301.14Z" style="fill: rgb(38, 50, 56); transform-origin: 427.026px 336.003px;" id="elt0lf39j48ar" class="animable"></path></g><g id="freepik--Books--inject-360" class="animable animator-active" style="transform-origin: 267.735px 405.813px;"><polygon points="260.84 388.22 218.15 388.22 187.31 404.87 233.86 404.87 260.84 388.22" style="fill: rgb(255, 255, 255); stroke: rgb(38, 50, 56); stroke-linecap: round; stroke-linejoin: round; stroke-width: 1.25474px; transform-origin: 224.075px 396.545px;" id="elikda7gmafon" class="animable"></polygon><line x1="217.71" y1="392.25" x2="249.98" y2="392.25" style="fill: none; stroke: rgb(38, 50, 56); stroke-linecap: round; stroke-linejoin: round; stroke-width: 1.25474px; transform-origin: 233.845px 392.25px;" id="elkluoct0zgep" class="animable"></line><line x1="212.75" y1="394.84" x2="245.02" y2="394.84" style="fill: none; stroke: rgb(38, 50, 56); stroke-linecap: round; stroke-linejoin: round; stroke-width: 1.25474px; transform-origin: 228.885px 394.84px;" id="elwjze3xoalu" class="animable"></line><line x1="207.8" y1="397.43" x2="240.07" y2="397.43" style="fill: none; stroke: rgb(38, 50, 56); stroke-linecap: round; stroke-linejoin: round; stroke-width: 1.25474px; transform-origin: 223.935px 397.43px;" id="eleekg7y79iu5" class="animable"></line><line x1="202.85" y1="400.03" x2="235.12" y2="400.03" style="fill: none; stroke: rgb(38, 50, 56); stroke-linecap: round; stroke-linejoin: round; stroke-width: 1.25474px; transform-origin: 218.985px 400.03px;" id="elwqt3dnx14qq" class="animable"></line><polygon points="187.31 404.87 187.31 407.74 234.83 407.74 233.86 404.87 187.31 404.87" style="fill: rgb(255, 255, 255); stroke: rgb(38, 50, 56); stroke-linecap: round; stroke-linejoin: round; stroke-width: 1.25474px; transform-origin: 211.07px 406.305px;" id="eltvgh3ixi95r" class="animable"></polygon><polygon points="234.83 407.74 262.09 390.67 260.84 388.22 233.86 404.87 234.83 407.74" style="fill: rgb(255, 255, 255); stroke: rgb(38, 50, 56); stroke-linecap: round; stroke-linejoin: round; stroke-width: 1.25474px; transform-origin: 247.975px 397.98px;" id="el9806lkcfwln" class="animable"></polygon><path d="M188.08,404a3.6,3.6,0,0,1-.11-.88,3.31,3.31,0,0,1,5.65-2.34" style="fill: none; stroke: rgb(38, 50, 56); stroke-linecap: round; stroke-linejoin: round; stroke-width: 1.25474px; transform-origin: 190.795px 401.906px;" id="elmvtdmziytap" class="animable"></path><path d="M192.41,402a3.58,3.58,0,0,1-.11-.87,3.31,3.31,0,0,1,5.65-2.34" style="fill: none; stroke: rgb(38, 50, 56); stroke-linecap: round; stroke-linejoin: round; stroke-width: 1.25474px; transform-origin: 195.125px 399.911px;" id="eldygskijz1sd" class="animable"></path><path d="M196.4,400a3.58,3.58,0,0,1-.12-.87,3.32,3.32,0,0,1,5.66-2.34" style="fill: none; stroke: rgb(38, 50, 56); stroke-linecap: round; stroke-linejoin: round; stroke-width: 1.25474px; transform-origin: 199.11px 397.913px;" id="eltcxlrgzw1" class="animable"></path><path d="M200.22,397.91a3.15,3.15,0,0,1-.12-.87,3.32,3.32,0,0,1,5.66-2.34" style="fill: none; stroke: rgb(38, 50, 56); stroke-linecap: round; stroke-linejoin: round; stroke-width: 1.25474px; transform-origin: 202.93px 395.823px;" id="el5sbhfcvk5rk" class="animable"></path><path d="M204.46,395.45a3.58,3.58,0,0,1-.11-.87,3.31,3.31,0,0,1,5.65-2.34" style="fill: none; stroke: rgb(38, 50, 56); stroke-linecap: round; stroke-linejoin: round; stroke-width: 1.25474px; transform-origin: 207.175px 393.361px;" id="ellxecd22dm9a" class="animable"></path><path d="M209,392.9a3.15,3.15,0,0,1-.12-.87,3.31,3.31,0,0,1,5.65-2.34" style="fill: none; stroke: rgb(38, 50, 56); stroke-linecap: round; stroke-linejoin: round; stroke-width: 1.25474px; transform-origin: 211.705px 390.811px;" id="elgif2181arsc" class="animable"></path><path d="M211.44,391.37a3.15,3.15,0,0,1-.12-.87,3.31,3.31,0,0,1,5.65-2.35" style="fill: none; stroke: rgb(38, 50, 56); stroke-linecap: round; stroke-linejoin: round; stroke-width: 1.25474px; transform-origin: 214.145px 389.276px;" id="elu1yz70kwhhl" class="animable"></path><path d="M266.56,398.17s3.25,7.16-2.14,9.22l32,20.54s3.11,1.79,7.07-1.77.66-11.37-1.12-12.36S266.56,398.17,266.56,398.17Z" style="fill: rgb(255, 255, 255); stroke: rgb(38, 50, 56); stroke-linecap: round; stroke-linejoin: round; stroke-width: 1.25474px; transform-origin: 284.888px 413.275px;" id="elvt7oud73z9h" class="animable"></path><path d="M306.66,381.88l-41.4,15.89,33.12,18a14.07,14.07,0,0,1,4.23,4.59,8.55,8.55,0,0,1,.45,1.43,4.78,4.78,0,0,1-7.13,5.11l-31.51-19.47s-2.93,0,.42,2.51C267.62,412,289,425,295.79,429a5.32,5.32,0,0,0,4.6.4l45.17-18.29a5.73,5.73,0,0,0,2.5-3.87,7.16,7.16,0,0,0-4.11-7.72Z" style="fill: rgb(38, 50, 56); stroke: rgb(38, 50, 56); stroke-linecap: round; stroke-linejoin: round; stroke-width: 1.25474px; transform-origin: 305.697px 405.813px;" id="eldcozbqzarl" class="animable"></path></g><g id="freepik--Bookshelf--inject-360" class="animable animator-active" style="transform-origin: 102.965px 258.01px;"><g style="clip-path: url(&quot;#freepik--clip-path--inject-360&quot;); transform-origin: 102.965px 258.01px;" id="eldr2bmeuqmym" class="animable"><polygon points="77.66 179.96 71.53 162.45 77.66 169.89 72.84 143.63 80.29 162.45 82.91 125.68 87.29 160.7 92.11 153.69 92.11 162.45 97.8 150.63 94.73 171.21 99.99 167.71 91.67 179.09 77.66 179.96" style="fill: rgb(146, 227, 169); transform-origin: 85.76px 152.82px;" id="el46nr1u2kq3q" class="animable"></polygon><polygon points="96.92 175.59 74.16 175.59 78.25 221.55 92.83 221.55 96.92 175.59" style="fill: rgb(38, 50, 56); stroke: rgb(38, 50, 56); stroke-linecap: round; stroke-linejoin: round; stroke-width: 1.25474px; transform-origin: 85.54px 198.57px;" id="el9fxzjzoe9u" class="animable"></polygon><rect x="62.06" y="221.02" width="77.55" height="164.27" style="fill: rgb(255, 255, 255); stroke: rgb(38, 50, 56); stroke-linecap: round; stroke-linejoin: round; stroke-width: 1.25474px; transform-origin: 100.835px 303.155px;" id="eldtocijg95t9" class="animable"></rect><rect x="100.84" y="221.02" width="43.03" height="164.27" style="fill: rgb(255, 255, 255); stroke: rgb(38, 50, 56); stroke-linecap: round; stroke-linejoin: round; stroke-width: 1.25474px; transform-origin: 122.355px 303.155px;" id="elg78n03leu" class="animable"></rect><rect x="100.84" y="221.02" width="38.18" height="164.27" style="fill: rgb(38, 50, 56); stroke: rgb(38, 50, 56); stroke-linecap: round; stroke-linejoin: round; stroke-width: 1.25474px; transform-origin: 119.93px 303.155px;" id="elmvf65q1unml" class="animable"></rect><rect x="100.84" y="347.11" width="33.89" height="33.64" style="fill: rgb(146, 227, 169); stroke: rgb(38, 50, 56); stroke-linecap: round; stroke-linejoin: round; stroke-width: 1.25474px; transform-origin: 117.785px 363.93px;" id="ellcto9matvsc" class="animable"></rect><rect x="100.84" y="348.93" width="33.89" height="4.31" style="fill: rgb(255, 255, 255); stroke: rgb(38, 50, 56); stroke-linecap: round; stroke-linejoin: round; stroke-width: 1.25474px; transform-origin: 117.785px 351.085px;" id="ely6kd3vox7qr" class="animable"></rect><rect x="100.84" y="373.69" width="33.89" height="4.31" style="fill: rgb(255, 255, 255); stroke: rgb(38, 50, 56); stroke-linecap: round; stroke-linejoin: round; stroke-width: 1.25474px; transform-origin: 117.785px 375.845px;" id="elwlsfv4iv9a" class="animable"></rect><line x1="107.27" y1="347.8" x2="107.27" y2="390.34" style="fill: none; stroke: rgb(38, 50, 56); stroke-linecap: round; stroke-linejoin: round; stroke-width: 1.25474px; transform-origin: 107.27px 369.07px;" id="el6nms4hjrd8c" class="animable"></line><line x1="119.09" y1="347.8" x2="119.09" y2="390.34" style="fill: none; stroke: rgb(38, 50, 56); stroke-linecap: round; stroke-linejoin: round; stroke-width: 1.25474px; transform-origin: 119.09px 369.07px;" id="elak1ofedsmg6" class="animable"></line><line x1="129.46" y1="347.8" x2="129.46" y2="390.34" style="fill: none; stroke: rgb(38, 50, 56); stroke-linecap: round; stroke-linejoin: round; stroke-width: 1.25474px; transform-origin: 129.46px 369.07px;" id="elrga3fgzg99" class="animable"></line><rect x="100.84" y="227.13" width="33.89" height="49.46" style="fill: rgb(146, 227, 169); stroke: rgb(38, 50, 56); stroke-linecap: round; stroke-linejoin: round; stroke-width: 1.25474px; transform-origin: 117.785px 251.86px;" id="elkl9f3r7hrl" class="animable"></rect><rect x="100.84" y="229.2" width="33.89" height="4.9" style="fill: rgb(255, 255, 255); stroke: rgb(38, 50, 56); stroke-linecap: round; stroke-linejoin: round; stroke-width: 1.25474px; transform-origin: 117.785px 231.65px;" id="elaue9h3zpd5s" class="animable"></rect><rect x="100.84" y="260.9" width="33.89" height="4.9" style="fill: rgb(255, 255, 255); stroke: rgb(38, 50, 56); stroke-linecap: round; stroke-linejoin: round; stroke-width: 1.25474px; transform-origin: 117.785px 263.35px;" id="elrxvkjel4ttb" class="animable"></rect><line x1="107.27" y1="227.92" x2="107.27" y2="276.25" style="fill: none; stroke: rgb(38, 50, 56); stroke-linecap: round; stroke-linejoin: round; stroke-width: 1.25474px; transform-origin: 107.27px 252.085px;" id="el5dgjx61osof" class="animable"></line><line x1="119.09" y1="227.92" x2="119.09" y2="276.25" style="fill: none; stroke: rgb(38, 50, 56); stroke-linecap: round; stroke-linejoin: round; stroke-width: 1.25474px; transform-origin: 119.09px 252.085px;" id="elyfwj7v30ubd" class="animable"></line><line x1="129.46" y1="227.92" x2="129.46" y2="276.25" style="fill: none; stroke: rgb(38, 50, 56); stroke-linecap: round; stroke-linejoin: round; stroke-width: 1.25474px; transform-origin: 129.46px 252.085px;" id="elcoc1jl8857s" class="animable"></line><rect x="100.84" y="286.74" width="33.89" height="49.46" style="fill: rgb(146, 227, 169); stroke: rgb(38, 50, 56); stroke-linecap: round; stroke-linejoin: round; stroke-width: 1.25474px; transform-origin: 117.785px 311.47px;" id="elzh84tl5zfo" class="animable"></rect><rect x="100.84" y="288.81" width="33.89" height="4.9" style="fill: rgb(255, 255, 255); stroke: rgb(38, 50, 56); stroke-linecap: round; stroke-linejoin: round; stroke-width: 1.25474px; transform-origin: 117.785px 291.26px;" id="eltaeo5e2hvbn" class="animable"></rect><rect x="100.84" y="320.52" width="33.89" height="4.9" style="fill: rgb(255, 255, 255); stroke: rgb(38, 50, 56); stroke-linecap: round; stroke-linejoin: round; stroke-width: 1.25474px; transform-origin: 117.785px 322.97px;" id="elxxt5xe0dpc9" class="animable"></rect><line x1="107.27" y1="287.53" x2="107.27" y2="335.86" style="fill: none; stroke: rgb(38, 50, 56); stroke-linecap: round; stroke-linejoin: round; stroke-width: 1.25474px; transform-origin: 107.27px 311.695px;" id="el9gak3ckt896" class="animable"></line><line x1="119.09" y1="287.53" x2="119.09" y2="335.86" style="fill: none; stroke: rgb(38, 50, 56); stroke-linecap: round; stroke-linejoin: round; stroke-width: 1.25474px; transform-origin: 119.09px 311.695px;" id="elh9tzi9zjh5" class="animable"></line><line x1="129.46" y1="287.53" x2="129.46" y2="335.86" style="fill: none; stroke: rgb(38, 50, 56); stroke-linecap: round; stroke-linejoin: round; stroke-width: 1.25474px; transform-origin: 129.46px 311.695px;" id="ela8a97yh8cs" class="animable"></line><rect x="100.84" y="275.91" width="38.78" height="5.62" style="fill: rgb(255, 255, 255); stroke: rgb(38, 50, 56); stroke-linecap: round; stroke-linejoin: round; stroke-width: 1.25474px; transform-origin: 120.23px 278.72px;" id="elljrzwrkktc9" class="animable"></rect><rect x="100.84" y="335.9" width="38.78" height="5.62" style="fill: rgb(255, 255, 255); stroke: rgb(38, 50, 56); stroke-linecap: round; stroke-linejoin: round; stroke-width: 1.25474px; transform-origin: 120.23px 338.71px;" id="el1tjcrrhwjhw" class="animable"></rect><line x1="139.62" y1="221.02" x2="139.62" y2="385.29" style="fill: none; stroke: rgb(38, 50, 56); stroke-linecap: round; stroke-linejoin: round; stroke-width: 1.25474px; transform-origin: 139.62px 303.155px;" id="elw0cnpu1sp8" class="animable"></line><polygon points="95.38 221.02 95.38 385.29 100.84 385.29 100.84 227.13 138.95 227.13 138.95 220.96 95.38 221.02" style="fill: rgb(255, 255, 255); stroke: rgb(38, 50, 56); stroke-linecap: round; stroke-linejoin: round; stroke-width: 1.25474px; transform-origin: 117.165px 303.125px;" id="elgyceod31jeu" class="animable"></polygon><line x1="100.84" y1="227.13" x2="100.84" y2="221.02" style="fill: none; stroke: rgb(38, 50, 56); stroke-linecap: round; stroke-linejoin: round; stroke-width: 1.25474px; transform-origin: 100.84px 224.075px;" id="elzbxwb3fck8" class="animable"></line></g></g><g id="freepik--Desk--inject-360" class="animable animator-active" style="transform-origin: 251.82px 384.37px;"><line x1="473.45" y1="384.37" x2="30.19" y2="384.37" style="fill: none; stroke: rgb(38, 50, 56); stroke-linecap: round; stroke-linejoin: round; stroke-width: 1.25474px; transform-origin: 251.82px 384.37px;" id="elqz6ig721y9q" class="animable"></line></g><g id="freepik--character-1--inject-360" class="animable animator-active" style="transform-origin: 179.634px 313.42px;"><path d="M260,317.45H190.7c-8.6-.66-9.12,2.76-9.12,2.76l-13,64.19h85.56c.45-3.21,7.2-50.68,8.47-58.35C263.94,318.11,260,317.45,260,317.45Z" style="fill: rgb(255, 255, 255); stroke: rgb(38, 50, 56); stroke-linecap: round; stroke-linejoin: round; stroke-width: 1.25474px; transform-origin: 215.732px 350.883px;" id="elg0kp1ccydop" class="animable"></path><path d="M260,317.45h-.13c-.5,0-2.37.5-3.51,5.62s-7.65,49.12-9.45,61.33h7.26c.45-3.21,7.2-50.68,8.47-58.35C263.94,318.11,260,317.45,260,317.45Z" style="fill: rgb(38, 50, 56); stroke: rgb(38, 50, 56); stroke-linecap: round; stroke-linejoin: round; stroke-width: 1.25474px; transform-origin: 254.907px 350.925px;" id="el5jcnkvrrtcj" class="animable"></path><path d="M147.63,384.4h80.65c-.42-12.61-2-58.08-3.2-63.72-1.38-6.56-4.83-7.59-9.66-7.94s-8.42.9-18.08.9-19-1-19-1-3.79-.35-5.86-.35-3.45,1.38-6.21,1.38a125.69,125.69,0,0,1-14.84-.69c-5.18-.69-11.39,2.07-12.42,7.25-.9,4.5-3,52.26-3.53,64.57h12.13Z" style="fill: rgb(146, 227, 169); stroke: rgb(38, 50, 56); stroke-linecap: round; stroke-linejoin: round; stroke-width: 1.25474px; transform-origin: 181.88px 348.545px;" id="elyd1ajcxi30b" class="animable"></path><path d="M170.92,319.69s2.85,13.68,10.82,17.09" style="fill: none; stroke: rgb(38, 50, 56); stroke-linecap: round; stroke-linejoin: round; stroke-width: 1.25474px; transform-origin: 176.33px 328.235px;" id="elwxoxls8676" class="animable"></path><path d="M163.51,317.41s-4,8.55,1.71,21.08" style="fill: none; stroke: rgb(38, 50, 56); stroke-linecap: round; stroke-linejoin: round; stroke-width: 1.25474px; transform-origin: 163.684px 327.95px;" id="elw1d83w1t2yq" class="animable"></path><path d="M210.8,335.08s-9.11,23.35-29.06,34.18" style="fill: none; stroke: rgb(38, 50, 56); stroke-linecap: round; stroke-linejoin: round; stroke-width: 1.25474px; transform-origin: 196.27px 352.17px;" id="elfe44udssu5p" class="animable"></path><path d="M173.19,304.67s.69,9.66,1.72,15.18,6.9,9,13.46,6.9,9.31-6.55,9.66-9.66.34-14.83.34-14.83S188,309.16,173.19,304.67Z" style="fill: rgb(255, 255, 255); stroke: rgb(38, 50, 56); stroke-linecap: round; stroke-linejoin: round; stroke-width: 1.25474px; transform-origin: 185.78px 314.814px;" id="el1u4od7gwwbo" class="animable"></path><path d="M208.59,249.71s.94-1.25-1.56-5-8.44-6.25-8.44-6.25l3.75,5s-10.62-5.62-15-5.62S172,239.4,172,239.4l5.31,1.25s-13.12,4.06-14.68,5.93-9.06,8.13-7.5,8.13,9.37-1.25,9.37-1.25-7.81,7.5-7.81,10.62,6.87,18.12,6.87,18.12,4.69,8.44,6.25,4.37-.94-13.74-.62-14.68,18.43-2.5,22.49-2.5,3.44,9.69,5,11.25S205.78,285,207,285s3.44-.93,3.44-2.18A23.83,23.83,0,0,1,212,275c1.25-3.13,2.81-5.94,3.12-9.69s-1.87-12.18-1.87-12.18h2.81S213.28,248.46,208.59,249.71Z" style="fill: rgb(38, 50, 56); stroke: rgb(38, 50, 56); stroke-linecap: round; stroke-linejoin: round; stroke-width: 1.25474px; transform-origin: 185.489px 262.76px;" id="eltb3jlrzagla" class="animable"></path><path d="M165.17,280s-1.57-5.93-4.38-1.87c-1.81,2.62,2.81,13.12,5.31,13.75S165.17,280,165.17,280Z" style="fill: rgb(255, 255, 255); stroke: rgb(38, 50, 56); stroke-linecap: round; stroke-linejoin: round; stroke-width: 1.25474px; transform-origin: 163.696px 284.306px;" id="ela3mzntmomip" class="animable"></path><path d="M165.17,268.14s0,22.81,1.56,28.43,7.81,14.06,16.87,14.06,15.31-4.69,17.81-8.12,3.74-10.31,3.74-10.31,2.82,2.19,6.25-1.88,3.93-11.29,2.5-12.18c-2.5-1.56-5.31.31-6.56,1.56l-2.5,2.5s-4.06-2.81-4.06-6.56.63-10.62.63-10.62l-2.82,1.87.32-2.5s-.63.63-4.38.63-12.81.62-12.81.62l4.69-6.25s-9.06,4.07-12.18,5.94S165.17,268.14,165.17,268.14Z" style="fill: rgb(255, 255, 255); stroke: rgb(38, 50, 56); stroke-linecap: round; stroke-linejoin: round; stroke-width: 1.25474px; transform-origin: 189.91px 285.01px;" id="elmhkjs1sfyh" class="animable"></path><path d="M176.91,281.83c0,1.69-.67,3.07-1.5,3.07s-1.5-1.38-1.5-3.07.67-3.07,1.5-3.07S176.91,280.14,176.91,281.83Z" style="fill: rgb(38, 50, 56); transform-origin: 175.41px 281.83px;" id="el3v7on7oeenc" class="animable"></path><path d="M191.37,282.25c0,1.69-.67,3.06-1.5,3.06s-1.5-1.37-1.5-3.06.67-3.07,1.5-3.07S191.37,280.55,191.37,282.25Z" style="fill: rgb(38, 50, 56); transform-origin: 189.87px 282.245px;" id="el409qlqikpyl" class="animable"></path><path d="M179.41,289.08s0,4.39,5.44,3.34" style="fill: none; stroke: rgb(38, 50, 56); stroke-linecap: round; stroke-linejoin: round; stroke-width: 1.25474px; transform-origin: 182.13px 290.831px;" id="ely0045ic1vr" class="animable"></path><path d="M177.74,297s4.39,2.71,10.46-.21" style="fill: none; stroke: rgb(38, 50, 56); stroke-linecap: round; stroke-linejoin: round; stroke-width: 1.25474px; transform-origin: 182.97px 297.467px;" id="el7rr7hxh6ycq" class="animable"></path><path d="M170,275.9a4.84,4.84,0,0,1,5.65-2.3" style="fill: none; stroke: rgb(38, 50, 56); stroke-linecap: round; stroke-linejoin: round; stroke-width: 1.25474px; transform-origin: 172.825px 274.645px;" id="elkj3y1nel9as" class="animable"></path><path d="M186.94,273.6s5-1.46,6.9,1.89" style="fill: none; stroke: rgb(38, 50, 56); stroke-linecap: round; stroke-linejoin: round; stroke-width: 1.25474px; transform-origin: 190.39px 274.387px;" id="el7sh036dwc" class="animable"></path><path d="M139.63,318.24l-13.86,38.17s-8.88,6.45-9.83,8.12c-2.39,4.17.72,10.09,3.59,13.18,4.52,4.85,13.71,5.54,19.21,1.94,3.61-2.36,5.73-7.16,7.09-11.11L147.29,335" style="fill: rgb(146, 227, 169); stroke: rgb(38, 50, 56); stroke-linecap: round; stroke-linejoin: round; stroke-width: 1.25474px; transform-origin: 131.19px 350.083px;" id="ele6wskc5475w" class="animable"></path><path d="M119.77,359.76s7.11-5.85,18.82.84" style="fill: none; stroke: rgb(38, 50, 56); stroke-linecap: round; stroke-linejoin: round; stroke-width: 1.25474px; transform-origin: 129.18px 358.996px;" id="elwndw8p6zzaq" class="animable"></path><path d="M125.91,362.62l9.39,2s9-3.67,9.79.41-5.3,5.31-6.94,5.31-5.71-.41-7.34,0-3.67,2.44-7.34,2.85c0,0-10.2,4.08-14.28,1.63s-.82-11,4.49-13.87S125.91,362.62,125.91,362.62Z" style="fill: rgb(255, 255, 255); stroke: rgb(38, 50, 56); stroke-linecap: round; stroke-linejoin: round; stroke-width: 1.25474px; transform-origin: 126.257px 367.801px;" id="elx224825hkhd" class="animable"></path><path d="M105,365.64s-4-2.38-5.26.65-4.93,10.06-2.64,9.43S105,365.64,105,365.64Z" style="fill: rgb(255, 255, 255); stroke: rgb(38, 50, 56); stroke-linecap: round; stroke-linejoin: round; stroke-width: 1.25474px; transform-origin: 100.682px 370.256px;" id="elxyc6wzpfl7s" class="animable"></path><path d="M111.23,361.4s-6.58-.71-7.35,1.22c-1.42,3.59-3.26,13.47-.4,14.28s3.67-5.3,5.3-9A55.79,55.79,0,0,0,111.23,361.4Z" style="fill: rgb(255, 255, 255); stroke: rgb(38, 50, 56); stroke-linecap: round; stroke-linejoin: round; stroke-width: 1.25474px; transform-origin: 106.602px 369.123px;" id="elnu39fo7qeo" class="animable"></path><path d="M114.9,357.32s-4.9-.41-6.53,2.86-2.58,16.34-1,16.34,1.18,1.29,3.63-4c1.2-2.59,3-11.11,3-11.11Z" style="fill: rgb(255, 255, 255); stroke: rgb(38, 50, 56); stroke-linecap: round; stroke-linejoin: round; stroke-width: 1.25474px; transform-origin: 110.73px 366.981px;" id="elychycycv3te" class="animable"></path><path d="M127.09,363.73s-6.5-5.54-8.21-6.49-2.87-1.34-4.78.38-2.29,7.83-3.81,11.65-3.06,7.82-1.15,7.82,3.63-.95,5.15-3,4.4-9.55,4.4-9.55" style="fill: rgb(255, 255, 255); stroke: rgb(38, 50, 56); stroke-linecap: round; stroke-linejoin: round; stroke-width: 1.25474px; transform-origin: 117.671px 366.759px;" id="eleav38gvosmb" class="animable"></path><path d="M117.73,368.31s2.29,1,5.54-1.15" style="fill: rgb(255, 255, 255); stroke: rgb(38, 50, 56); stroke-linecap: round; stroke-linejoin: round; stroke-width: 1.25474px; transform-origin: 120.5px 367.851px;" id="el1wf7c4gtf2wk" class="animable"></path><path d="M213.82,312.47s7.81-1.5,11.6,2.3,14.7,32.3,18.5,42,7.59,16.56,6.55,21.39-9,6.55-14.83,6.9c-6.63.39-11-3.8-11-5.18s-2.42-4.48,2.07-15.18l-3.11-22.77" style="fill: rgb(146, 227, 169); stroke: rgb(38, 50, 56); stroke-linecap: round; stroke-linejoin: round; stroke-width: 1.25474px; transform-origin: 232.232px 348.632px;" id="el1fshs52xdrp" class="animable"></path><path d="M234.2,366.24s-6.56-2.85-7.66-2.85a6.72,6.72,0,0,0-1.53,3.94c0,2.19.22,11.16,1.31,11.6s4.38-1.53,6.57-4.59S235.51,366.89,234.2,366.24Z" style="fill: rgb(255, 255, 255); stroke: rgb(38, 50, 56); stroke-linecap: round; stroke-linejoin: round; stroke-width: 1.25474px; transform-origin: 229.974px 371.191px;" id="el7mccnjbk8hr" class="animable"></path><path d="M229.39,354l-3.72,30.17L227,389l2.19-4.16,3.94-30.42a1.87,1.87,0,0,0-1.64-2.06h0A1.86,1.86,0,0,0,229.39,354Z" style="fill: rgb(255, 255, 255); stroke: rgb(38, 50, 56); stroke-linecap: round; stroke-linejoin: round; stroke-width: 1.25474px; transform-origin: 229.406px 370.671px;" id="el7lvfqi3aqx9" class="animable"></path><polygon points="229.17 384.84 225.67 384.18 226.98 389 229.17 384.84" style="fill: rgb(255, 255, 255); stroke: rgb(38, 50, 56); stroke-linecap: round; stroke-linejoin: round; stroke-width: 1.25474px; transform-origin: 227.42px 386.59px;" id="elmn2jxryrzv" class="animable"></polygon><path d="M231.47,352.36a1.86,1.86,0,0,0-2.08,1.65l-.48,3.9,3.65.73.55-4.22A1.87,1.87,0,0,0,231.47,352.36Z" style="fill: rgb(255, 255, 255); stroke: rgb(38, 50, 56); stroke-linecap: round; stroke-linejoin: round; stroke-width: 1.25474px; transform-origin: 231.016px 355.493px;" id="elne8jcz66nt" class="animable"></path><path d="M226.54,363.39c-1.09,0-3.28,2.85-4.59,4.38s-.88,4.81.21,7.44,1.54,7.44,2.85,7.66,2.41-1.09,2.41-3.5-.44-7.44-.44-7.44" style="fill: rgb(255, 255, 255); stroke: rgb(38, 50, 56); stroke-linecap: round; stroke-linejoin: round; stroke-width: 1.25474px; transform-origin: 224.28px 373.142px;" id="elvog2swmy1cn" class="animable"></path><path d="M241.2,378.93s1.54,4.16-.21,6.35-7.45,1.31-8.54.44S237.27,383.31,241.2,378.93Z" style="fill: rgb(255, 255, 255); stroke: rgb(38, 50, 56); stroke-linecap: round; stroke-linejoin: round; stroke-width: 1.25474px; transform-origin: 237.072px 382.792px;" id="el1adn9621cu" class="animable"></path><path d="M240.55,375a4.63,4.63,0,0,1,.87,4.82c-1.09,2.84-5,5.25-7.88,5.69s-5.25-1.1-3.93-2S237.48,378.28,240.55,375Z" style="fill: rgb(255, 255, 255); stroke: rgb(38, 50, 56); stroke-linecap: round; stroke-linejoin: round; stroke-width: 1.25474px; transform-origin: 235.492px 380.294px;" id="eljfw14ipksim" class="animable"></path><path d="M237.92,370.18s2.63,2.4,2.63,4.81-6.35,8.1-9.41,9.19-4.6,0-3.72-2,9.63-11.81,9.63-11.81S236.61,369.74,237.92,370.18Z" style="fill: rgb(255, 255, 255); stroke: rgb(38, 50, 56); stroke-linecap: round; stroke-linejoin: round; stroke-width: 1.25474px; transform-origin: 233.862px 377.318px;" id="elicevcfxy71h" class="animable"></path><path d="M230.48,370.18s-4.81,8.31-5.47,10.94,1.75,2.63,3.28,1.53,8.76-9.85,9.63-12.47-.65-5.47-3.5-5S230.48,370.18,230.48,370.18Z" style="fill: rgb(255, 255, 255); stroke: rgb(38, 50, 56); stroke-linecap: round; stroke-linejoin: round; stroke-width: 1.25474px; transform-origin: 231.531px 374.237px;" id="el3ww0yh5f4ew" class="animable"></path></g><g id="freepik--character-2--inject-360" class="animable animator-active" style="transform-origin: 295.118px 285.543px;"><path d="M403.83,384.35c1.42-10.36,7.11-51.88,8.27-58.81,1.32-7.94-2.65-8.6-2.65-8.6H340.18c-8.6-.66-9.12,2.76-9.12,2.76L318.4,384.35Z" style="fill: rgb(255, 255, 255); stroke: rgb(38, 50, 56); stroke-linecap: round; stroke-linejoin: round; stroke-width: 1.25474px; transform-origin: 365.384px 350.603px;" id="elk9xts445lns" class="animable"></path><path d="M403.83,384.35c1.42-10.36,7.11-51.88,8.27-58.81,1.32-7.94-2.65-8.6-2.65-8.6h-.13c-.5,0-2.37.5-3.5,5.62-1.08,4.85-7.07,47-9.23,61.79Z" style="fill: rgb(38, 50, 56); stroke: rgb(38, 50, 56); stroke-linecap: round; stroke-linejoin: round; stroke-width: 1.25474px; transform-origin: 404.479px 350.645px;" id="eli382pzn7qb9" class="animable"></path><path d="M262.63,384.35c5.28-5.78,22.11-24.18,26.36-28.44,5.07-5.07,8.93-9.89,8.93-9.89l1.45,38.33h80.32c-.09-.52-4.62-29.34-8.44-49.18-3.86-20-7.72-39.08-16.4-51.14s-34.5-24.36-34.5-24.36L298.16,277s-6.51,7.72-8.44,15.2-6.76,26.53-8.93,34c-2,6.85-26.64,50.8-30.76,58.11Z" style="fill: rgb(146, 227, 169); stroke: rgb(38, 50, 56); stroke-linecap: round; stroke-linejoin: round; stroke-width: 1.25474px; transform-origin: 314.86px 322.01px;" id="el30sm8ec4tdv" class="animable"></path><path d="M353.3,318.27c4.28,20.46,8.05,39.28,12,59.23" style="fill: none; stroke: rgb(38, 50, 56); stroke-linecap: round; stroke-linejoin: round; stroke-width: 1.25474px; transform-origin: 359.3px 347.885px;" id="elaexvfpwel5a" class="animable"></path><path d="M335.45,324.22c3.31,17,5.82,35.84,9.1,53.36" style="fill: none; stroke: rgb(38, 50, 56); stroke-linecap: round; stroke-linejoin: round; stroke-width: 1.25474px; transform-origin: 340px 350.9px;" id="elnfies2nidy" class="animable"></path><path d="M316,287.43c2.72,30,5.22,60.08,8.66,90" style="fill: none; stroke: rgb(38, 50, 56); stroke-linecap: round; stroke-linejoin: round; stroke-width: 1.25474px; transform-origin: 320.33px 332.43px;" id="elm5q2qt0dunn" class="animable"></path><path d="M298.11,295.55c3,28.12,5.52,54.47,9.06,82.05" style="fill: none; stroke: rgb(38, 50, 56); stroke-linecap: round; stroke-linejoin: round; stroke-width: 1.25474px; transform-origin: 302.64px 336.575px;" id="el29qyj0quyp6" class="animable"></path><path d="M291.62,301.5s-8.11,36.25-12.44,46" style="fill: none; stroke: rgb(38, 50, 56); stroke-linecap: round; stroke-linejoin: round; stroke-width: 1.25474px; transform-origin: 285.4px 324.5px;" id="el5nox9ss36a7" class="animable"></path><path d="M293.78,329.09s-4.86,20-8.65,27.59" style="fill: none; stroke: rgb(38, 50, 56); stroke-linecap: round; stroke-linejoin: round; stroke-width: 1.25474px; transform-origin: 289.455px 342.885px;" id="elkrjn1jc7fo" class="animable"></path><line x1="320.84" y1="270.12" x2="333.28" y2="278.77" style="fill: none; stroke: rgb(38, 50, 56); stroke-linecap: round; stroke-linejoin: round; stroke-width: 1.25474px; transform-origin: 327.06px 274.445px;" id="elb89tbsmq2nn" class="animable"></line><line x1="297.92" y1="346.02" x2="293.82" y2="313.22" style="fill: none; stroke: rgb(38, 50, 56); stroke-linecap: round; stroke-linejoin: round; stroke-width: 1.25474px; transform-origin: 295.87px 329.62px;" id="elf2zq90u8lrh" class="animable"></line><path d="M262.63,384.35c5-5.49,20.41-22.33,25.53-27.59-4.28-2.8-11.58-7.56-16.73-10.83-7.41,14.38-18.66,33.76-21.38,38.42Z" style="fill: rgb(255, 255, 255); stroke: rgb(38, 50, 56); stroke-linecap: round; stroke-linejoin: round; stroke-width: 1.25474px; transform-origin: 269.105px 365.14px;" id="el1x15bogqayo" class="animable"></path><path d="M268,352.29s14,10.13,15.2,10.13,8.2-7,8.68-8.44S275,340.71,274,340.71,268,348.92,268,352.29Z" style="fill: rgb(255, 255, 255); stroke: rgb(38, 50, 56); stroke-linecap: round; stroke-linejoin: round; stroke-width: 1.25474px; transform-origin: 279.945px 351.565px;" id="elukf6uo27kp" class="animable"></path><polyline points="301.54 284.75 303.95 310.08 308.29 309.12 307.81 303.57" style="fill: none; stroke: rgb(38, 50, 56); stroke-linecap: round; stroke-linejoin: round; stroke-width: 1.25474px; transform-origin: 304.915px 297.415px;" id="elvq7p1q861kq" class="animable"></polyline><polygon points="291.41 281.13 290.2 291.02 299.13 281.86 291.41 281.13" style="fill: rgb(255, 255, 255); stroke: rgb(38, 50, 56); stroke-linecap: round; stroke-linejoin: round; stroke-width: 1.25474px; transform-origin: 294.665px 286.075px;" id="elodyonsr2qx" class="animable"></polygon><polygon points="296.47 272.93 291.41 281.13 305.16 286.44 309.01 276.31 296.47 272.93" style="fill: rgb(255, 255, 255); stroke: rgb(38, 50, 56); stroke-linecap: round; stroke-linejoin: round; stroke-width: 1.25474px; transform-origin: 300.21px 279.685px;" id="elhtb9nxkisnm" class="animable"></polygon><path d="M260.05,217.45s-1.93,12.31-1.21,14.72,3.86,5.31,4.1,7.48-5.54,9.64-3.86,11.57,5.31,3.38,5.31,3.38,7.24,19.06,10.61,19.78,14.24-5.06,14.24-5.06,13.5,12.3,14.23,13,14.23-26.53,14.23-26.53-6-11.82-6-12.55,9.41-26.53,8.92-36.9-30.15-20.5-36.18-19.54-18.81,8-18.81,8,4.58-3.86.72-3.62-15.44,8.93-14.95,16.4S260.05,217.45,260.05,217.45Z" style="fill: rgb(255, 255, 255); stroke: rgb(38, 50, 56); stroke-linecap: round; stroke-linejoin: round; stroke-width: 1.25474px; transform-origin: 286.012px 234.535px;" id="elomu5tag9f1" class="animable"></path><path d="M301.3,256.77c2.41-6.75-2.9-19.54-2.42-22.43s2.9-9.89,7.24-9.89,3.62,8.68,3.14,12.3A22.31,22.31,0,0,1,306.6,244s2.84-.51,5.09-.86c.55-2.17,9.37-26.72,8.9-36.77-.48-10.37-30.15-20.5-36.18-19.54s-18.81,8-18.81,8,4.58-3.86.72-3.62-15.44,8.93-14.95,16.4,8.68,9.89,8.68,9.89,15.44-7.71,21-8.44-1.68,5.31-2.17,8.69,8,6,11.1,8.92,5.06,21.47,3.14,25.81-11.1,2.17-15.44.48-13.27,1.69-13.27,1.69,7.24,19.06,10.61,19.78c1.85.4,5.93-1.16,9.25-2.64l5-2.42S298.88,263.53,301.3,256.77Z" style="fill: rgb(38, 50, 56); stroke: rgb(38, 50, 56); stroke-linecap: round; stroke-linejoin: round; stroke-width: 1.25474px; transform-origin: 285.982px 230.63px;" id="elsrj8aiygqei" class="animable"></path><path d="M270.39,239.15c.38,1.55.22,2.92-.36,3.07s-1.37-1-1.75-2.56-.22-2.92.36-3.07S270,237.59,270.39,239.15Z" style="fill: rgb(38, 50, 56); transform-origin: 269.335px 239.405px;" id="elckazsknjua" class="animable"></path><path d="M268,258.94s4.82,0,7.48-3.86" style="fill: none; stroke: rgb(125, 125, 125); stroke-linecap: round; stroke-linejoin: round; stroke-width: 1.25474px; transform-origin: 271.74px 257.01px;" id="el3q4odgdk7bj" class="animable"></path><path d="M264.15,233.13s.72-3.37,6.75-1" style="fill: none; stroke: rgb(38, 50, 56); stroke-linecap: round; stroke-linejoin: round; stroke-width: 2.50947px; transform-origin: 267.525px 232.208px;" id="el3z1v6dzpmnc" class="animable"></path><polygon points="316.73 251.71 300.09 284.27 309.01 295.37 324.21 259.43 316.73 251.71" style="fill: rgb(255, 255, 255); stroke: rgb(38, 50, 56); stroke-linecap: round; stroke-linejoin: round; stroke-width: 1.25474px; transform-origin: 312.15px 273.54px;" id="elr6w084iqpan" class="animable"></polygon><path d="M336.27,280.89s-7.48-1-10.37,1.21S308.29,319,308.29,319a23.84,23.84,0,0,1,11.34,7.24c4.58,5.55,8,15.44,8,15.44s19.54-23.88,23.15-29.19" style="fill: rgb(146, 227, 169); stroke: rgb(38, 50, 56); stroke-linecap: round; stroke-linejoin: round; stroke-width: 1.25474px; transform-origin: 329.535px 311.172px;" id="elo6snjzzpkb" class="animable"></path><path d="M337.61,285.81s-6.49.54-8.66,4.33S310,328.55,310,328.55l7,5.95s14.61-30.84,18.94-36.25a22.26,22.26,0,0,1,10.82-7" style="fill: none; stroke: rgb(38, 50, 56); stroke-linecap: round; stroke-linejoin: round; stroke-width: 1.25474px; transform-origin: 328.38px 310.155px;" id="eliutlmyapker" class="animable"></path><line x1="347.89" y1="302.04" x2="324.08" y2="335.04" style="fill: none; stroke: rgb(38, 50, 56); stroke-linecap: round; stroke-linejoin: round; stroke-width: 1.25474px; transform-origin: 335.985px 318.54px;" id="elq30sidbpfcq" class="animable"></line><path d="M304.67,317.32s-6.51,4.1-6.51,8.68,5.79,15,12.06,20,11.82,3.62,15,1.45,10.85-3.38,11.33-12.06-11.33-21.23-16.4-22.92S304.67,317.32,304.67,317.32Z" style="fill: rgb(255, 255, 255); stroke: rgb(38, 50, 56); stroke-linecap: round; stroke-linejoin: round; stroke-width: 1.25474px; transform-origin: 317.362px 330.802px;" id="ell0l2gdobxhm" class="animable"></path><path d="M198.54,346s-2.65,2.41-5.31,4.34-5.54,3.38-3.13,4.59,5.06.24,7.72-.25,5.79-1.2,6-3.13S203.61,343.85,198.54,346Z" style="fill: rgb(255, 255, 255); stroke: rgb(38, 50, 56); stroke-linecap: round; stroke-linejoin: round; stroke-width: 1.25474px; transform-origin: 196.529px 350.52px;" id="elb7dvbfjgxy" class="animable"></path><path d="M321.32,345.06s3.86-6.76.24-13.51-10.62-9.89-15-9.89-78.39,20.74-78.39,20.74-22.43-6.27-25.09-5.3-18.57,9.64-22.19,11.33-3.62,3.86-1.93,4.1,6-1.2,8.2-1.93,9.41-3.37,9.41-3.37a39.14,39.14,0,0,0-1.45,5.3c0,1,6.76,4.59,8,4.59s5.31.72,8.2-.24-1.2-5.07-1.2-5.07l5.06-2.17s5.07,2.65,9.41,2.41a15.73,15.73,0,0,0,6.75-1.69S309.74,348.19,321.32,345.06Z" style="fill: rgb(255, 255, 255); stroke: rgb(38, 50, 56); stroke-linecap: round; stroke-linejoin: round; stroke-width: 1.25474px; transform-origin: 250.488px 339.52px;" id="elo3t0zhtqar" class="animable"></path><path d="M201,345.06s-3.13,6-2.41,7.23,7,4.59,7,4.59" style="fill: none; stroke: rgb(38, 50, 56); stroke-linecap: round; stroke-linejoin: round; stroke-width: 1.25474px; transform-origin: 202.036px 350.97px;" id="eldgdrdqob03h" class="animable"></path><path d="M206,345.3s-3.14,6-2.17,7.23,7.47,4.35,7.47,4.35" style="fill: none; stroke: rgb(38, 50, 56); stroke-linecap: round; stroke-linejoin: round; stroke-width: 1.25474px; transform-origin: 207.472px 351.09px;" id="elip83k5fhn9h" class="animable"></path><line x1="196.61" y1="347.23" x2="197.09" y2="345.06" style="fill: none; stroke: rgb(38, 50, 56); stroke-linecap: round; stroke-linejoin: round; stroke-width: 1.25474px; transform-origin: 196.85px 346.145px;" id="elch55ff0vnhu" class="animable"></line></g><g id="freepik--Device--inject-360" class="animable animator-active" style="transform-origin: 127.74px 373.33px;"><polygon points="191.27 383.67 110.45 383.67 79.61 400.33 164.28 400.33 191.27 383.67" style="fill: rgb(255, 255, 255); stroke: rgb(38, 50, 56); stroke-linecap: round; stroke-linejoin: round; stroke-width: 1.25474px; transform-origin: 135.44px 392px;" id="eln3scc9tgsz" class="animable"></polygon><line x1="115.74" y1="388.03" x2="175.41" y2="388.03" style="fill: none; stroke: rgb(38, 50, 56); stroke-linecap: round; stroke-linejoin: round; stroke-width: 1.25474px; transform-origin: 145.575px 388.03px;" id="elh49hwx5rrrh" class="animable"></line><line x1="111.39" y1="391.13" x2="171.06" y2="391.13" style="fill: none; stroke: rgb(38, 50, 56); stroke-linecap: round; stroke-linejoin: round; stroke-width: 1.25474px; transform-origin: 141.225px 391.13px;" id="elube54lxbko" class="animable"></line><line x1="107.03" y1="394.24" x2="166.71" y2="394.24" style="fill: none; stroke: rgb(38, 50, 56); stroke-linecap: round; stroke-linejoin: round; stroke-width: 1.25474px; transform-origin: 136.87px 394.24px;" id="eltxdkxg0i12a" class="animable"></line><line x1="175.72" y1="388.03" x2="158.63" y2="396.42" style="fill: none; stroke: rgb(38, 50, 56); stroke-linecap: round; stroke-linejoin: round; stroke-width: 1.25474px; transform-origin: 167.175px 392.225px;" id="elso0h2vaog8o" class="animable"></line><line x1="166.4" y1="388.03" x2="149.31" y2="396.42" style="fill: none; stroke: rgb(38, 50, 56); stroke-linecap: round; stroke-linejoin: round; stroke-width: 1.25474px; transform-origin: 157.855px 392.225px;" id="elv7whshdhe2r" class="animable"></line><polygon points="65.15 342.2 149.83 342.2 164.28 400.33 79.61 400.33 65.15 342.2" style="fill: rgb(38, 50, 56); stroke: rgb(38, 50, 56); stroke-linecap: round; stroke-linejoin: round; stroke-width: 1.25474px; transform-origin: 114.715px 371.265px;" id="elunnzf7qkq9m" class="animable"></polygon><g id="el3hdmaht81vu"><rect x="79.61" y="400.33" width="84.68" height="4.13" style="fill: rgb(255, 255, 255); stroke: rgb(38, 50, 56); stroke-linecap: round; stroke-linejoin: round; stroke-width: 1.25474px; transform-origin: 121.95px 402.395px; transform: rotate(180deg);" class="animable"></rect></g><polygon points="64.21 342.2 148.89 342.2 163.35 400.33 78.67 400.33 64.21 342.2" style="fill: rgb(255, 255, 255); stroke: rgb(38, 50, 56); stroke-linecap: round; stroke-linejoin: round; stroke-width: 1.25474px; transform-origin: 113.78px 371.265px;" id="elippt1p4sgkb" class="animable"></polygon><polygon points="164.28 400.33 191.27 383.67 191.27 387.09 164.28 404.46 164.28 400.33" style="fill: rgb(38, 50, 56); stroke: rgb(38, 50, 56); stroke-linecap: round; stroke-linejoin: round; stroke-width: 1.25474px; transform-origin: 177.775px 394.065px;" id="elahe0eprceu5" class="animable"></polygon><path d="M117.46,369.5a4.53,4.53,0,1,1-5.6-3.7A4.76,4.76,0,0,1,117.46,369.5Z" style="fill: none; stroke: rgb(38, 50, 56); stroke-linecap: round; stroke-linejoin: round; stroke-width: 1.25474px; transform-origin: 112.983px 370.213px;" id="elk3v0jfvwie8" class="animable"></path></g><defs>     <filter id="active" height="200%">         <feMorphology in="SourceAlpha" result="DILATED" operator="dilate" radius="2"></feMorphology>                <feFlood flood-color="#32DFEC" flood-opacity="1" result="PINK"></feFlood>        <feComposite in="PINK" in2="DILATED" operator="in" result="OUTLINE"></feComposite>        <feMerge>            <feMergeNode in="OUTLINE"></feMergeNode>            <feMergeNode in="SourceGraphic"></feMergeNode>        </feMerge>    </filter>    <filter id="hover" height="200%">        <feMorphology in="SourceAlpha" result="DILATED" operator="dilate" radius="2"></feMorphology>                <feFlood flood-color="#ff0000" flood-opacity="0.5" result="PINK"></feFlood>        <feComposite in="PINK" in2="DILATED" operator="in" result="OUTLINE"></feComposite>        <feMerge>            <feMergeNode in="OUTLINE"></feMergeNode>            <feMergeNode in="SourceGraphic"></feMergeNode>        </feMerge>            <feColorMatrix type="matrix" values="0   0   0   0   0                0   1   0   0   0                0   0   0   0   0                0   0   0   1   0 "></feColorMatrix>    </filter></defs><defs><clipPath id="freepik--clip-path--inject-360"><rect x="55.69" y="125.54" width="99.75" height="258.59" style="fill:none"></rect></clipPath></defs></svg>