<svg xmlns="http://www.w3.org/2000/svg" xmlns:xlink="http://www.w3.org/1999/xlink" width="500" zoomAndPan="magnify" viewBox="0 0 375 374.999991" height="500" preserveAspectRatio="xMidYMid meet" version="1.0"><defs><g/><clipPath id="cc5e27c755"><path d="M 119.238281 112.253906 L 255.449219 112.253906 L 255.449219 188.753906 L 119.238281 188.753906 Z M 119.238281 112.253906 " clip-rule="nonzero"/></clipPath></defs><g clip-path="url(#cc5e27c755)"><path fill="#5271ff" d="M 247.140625 170.53125 C 248.164062 170.53125 249 171.367188 249 172.394531 C 249 173.421875 248.164062 174.257812 247.140625 174.257812 C 246.113281 174.257812 245.277344 173.421875 245.277344 172.394531 C 245.277344 171.367188 246.113281 170.53125 247.140625 170.53125 Z M 222.585938 170.773438 C 223.613281 170.773438 224.445312 171.609375 224.445312 172.648438 C 224.445312 173.675781 223.613281 174.511719 222.585938 174.511719 C 221.5625 174.511719 220.726562 173.675781 220.726562 172.648438 C 220.726562 171.609375 221.5625 170.773438 222.585938 170.773438 Z M 252.191406 182.03125 C 253.214844 182.03125 254.050781 182.867188 254.050781 183.894531 C 254.050781 184.929688 253.214844 185.769531 252.191406 185.769531 C 251.164062 185.769531 250.320312 184.929688 250.320312 183.894531 C 250.320312 182.867188 251.164062 182.03125 252.191406 182.03125 Z M 199.320312 145.691406 L 175.464844 145.691406 L 175.464844 131.980469 C 175.464844 125.390625 180.820312 120.027344 187.390625 120.027344 C 193.972656 120.027344 199.320312 125.390625 199.320312 131.980469 Z M 192.425781 181.550781 L 182.261719 181.550781 L 184.835938 163.917969 C 183.148438 163.011719 182.011719 161.242188 182.011719 159.195312 C 182.011719 156.242188 184.402344 153.855469 187.347656 153.855469 C 190.296875 153.855469 192.679688 156.242188 192.679688 159.195312 C 192.679688 161.242188 191.539062 163.011719 189.863281 163.917969 Z M 122.507812 185.769531 C 121.472656 185.769531 120.636719 184.929688 120.636719 183.894531 C 120.636719 182.867188 121.472656 182.03125 122.507812 182.03125 C 123.535156 182.03125 124.367188 182.867188 124.367188 183.894531 C 124.367188 184.929688 123.535156 185.769531 122.507812 185.769531 Z M 152.101562 174.511719 C 151.078125 174.511719 150.242188 173.675781 150.242188 172.648438 C 150.242188 171.609375 151.078125 170.773438 152.101562 170.773438 C 153.128906 170.773438 153.964844 171.609375 153.964844 172.648438 C 153.964844 173.675781 153.128906 174.511719 152.101562 174.511719 Z M 127.550781 174.257812 C 126.523438 174.257812 125.6875 173.421875 125.6875 172.394531 C 125.6875 171.367188 126.523438 170.53125 127.550781 170.53125 C 128.585938 170.53125 129.417969 171.367188 129.417969 172.394531 C 129.417969 173.421875 128.585938 174.257812 127.550781 174.257812 Z M 122.507812 163.105469 C 121.472656 163.105469 120.636719 162.269531 120.636719 161.242188 C 120.636719 160.214844 121.472656 159.378906 122.507812 159.378906 C 123.535156 159.378906 124.367188 160.214844 124.367188 161.242188 C 124.367188 162.269531 123.535156 163.105469 122.507812 163.105469 Z M 152.101562 157.4375 C 151.078125 157.4375 150.242188 156.597656 150.242188 155.570312 C 150.242188 154.542969 151.078125 153.707031 152.101562 153.707031 C 153.128906 153.707031 153.964844 154.542969 153.964844 155.570312 C 153.964844 156.597656 153.128906 157.4375 152.101562 157.4375 Z M 134.011719 157.4375 C 132.984375 157.4375 132.140625 156.597656 132.140625 155.570312 C 132.140625 154.542969 132.984375 153.707031 134.011719 153.707031 C 135.035156 153.707031 135.871094 154.542969 135.871094 155.570312 C 135.871094 156.597656 135.035156 157.4375 134.011719 157.4375 Z M 122.507812 151.878906 C 121.472656 151.878906 120.636719 151.039062 120.636719 150.011719 C 120.636719 148.984375 121.472656 148.148438 122.507812 148.148438 C 123.535156 148.148438 124.367188 148.984375 124.367188 150.011719 C 124.367188 151.039062 123.535156 151.878906 122.507812 151.878906 Z M 129.515625 140.308594 C 128.488281 140.308594 127.65625 139.472656 127.65625 138.433594 C 127.65625 137.40625 128.488281 136.570312 129.515625 136.570312 C 130.539062 136.570312 131.382812 137.40625 131.382812 138.433594 C 131.382812 139.472656 130.539062 140.308594 129.515625 140.308594 Z M 148.035156 134.601562 C 147.007812 134.601562 146.171875 133.765625 146.171875 132.738281 C 146.171875 131.707031 147.007812 130.871094 148.035156 130.871094 C 149.058594 130.871094 149.894531 131.707031 149.894531 132.738281 C 149.894531 133.765625 149.058594 134.601562 148.035156 134.601562 Z M 128.53125 119.066406 C 127.507812 119.066406 126.671875 118.222656 126.671875 117.195312 C 126.671875 116.164062 127.507812 115.328125 128.53125 115.328125 C 129.566406 115.328125 130.402344 116.164062 130.402344 117.195312 C 130.402344 118.222656 129.566406 119.066406 128.53125 119.066406 Z M 246.15625 115.328125 C 247.183594 115.328125 248.015625 116.164062 248.015625 117.195312 C 248.015625 118.222656 247.183594 119.066406 246.15625 119.066406 C 245.128906 119.066406 244.296875 118.222656 244.296875 117.195312 C 244.296875 116.164062 245.128906 115.328125 246.15625 115.328125 Z M 226.65625 130.871094 C 227.679688 130.871094 228.515625 131.707031 228.515625 132.738281 C 228.515625 133.765625 227.679688 134.601562 226.65625 134.601562 C 225.628906 134.601562 224.792969 133.765625 224.792969 132.738281 C 224.792969 131.707031 225.628906 130.871094 226.65625 130.871094 Z M 245.175781 136.570312 C 246.199219 136.570312 247.035156 137.40625 247.035156 138.433594 C 247.035156 139.472656 246.199219 140.308594 245.175781 140.308594 C 244.148438 140.308594 243.3125 139.472656 243.3125 138.433594 C 243.3125 137.40625 244.148438 136.570312 245.175781 136.570312 Z M 252.191406 148.148438 C 253.214844 148.148438 254.050781 148.984375 254.050781 150.011719 C 254.050781 151.039062 253.214844 151.878906 252.191406 151.878906 C 251.164062 151.878906 250.320312 151.039062 250.320312 150.011719 C 250.320312 148.984375 251.164062 148.148438 252.191406 148.148438 Z M 240.6875 153.707031 C 241.714844 153.707031 242.546875 154.542969 242.546875 155.570312 C 242.546875 156.597656 241.714844 157.4375 240.6875 157.4375 C 239.652344 157.4375 238.820312 156.597656 238.820312 155.570312 C 238.820312 154.542969 239.652344 153.707031 240.6875 153.707031 Z M 222.585938 153.707031 C 223.613281 153.707031 224.445312 154.542969 224.445312 155.570312 C 224.445312 156.597656 223.613281 157.4375 222.585938 157.4375 C 221.5625 157.4375 220.726562 156.597656 220.726562 155.570312 C 220.726562 154.542969 221.5625 153.707031 222.585938 153.707031 Z M 252.191406 159.378906 C 253.214844 159.378906 254.050781 160.214844 254.050781 161.242188 C 254.050781 162.269531 253.214844 163.105469 252.191406 163.105469 C 251.164062 163.105469 250.320312 162.269531 250.320312 161.242188 C 250.320312 160.214844 251.164062 159.378906 252.191406 159.378906 Z M 249 161.949219 C 249.320312 163.414062 250.625 164.511719 252.191406 164.511719 C 253.988281 164.511719 255.449219 163.046875 255.449219 161.242188 C 255.449219 159.4375 253.988281 157.96875 252.191406 157.96875 C 250.625 157.96875 249.320312 159.074219 249 160.535156 L 214.308594 160.535156 L 214.308594 156.242188 L 219.394531 156.242188 C 219.699219 157.722656 221.023438 158.847656 222.585938 158.847656 C 224.386719 158.847656 225.855469 157.375 225.855469 155.570312 C 225.855469 153.769531 224.386719 152.296875 222.585938 152.296875 C 221.039062 152.296875 219.742188 153.382812 219.40625 154.839844 L 214.308594 154.839844 L 214.308594 150.542969 L 228.472656 150.542969 L 234.191406 156.277344 L 237.496094 156.277344 C 237.820312 157.742188 239.121094 158.847656 240.6875 158.847656 C 242.488281 158.847656 243.949219 157.375 243.949219 155.570312 C 243.949219 153.769531 242.488281 152.296875 240.6875 152.296875 C 239.121094 152.296875 237.820312 153.402344 237.496094 154.867188 L 234.765625 154.867188 L 229.054688 149.132812 L 214.128906 149.132812 C 213.554688 147.144531 211.71875 145.691406 209.554688 145.691406 L 207.085938 145.691406 L 207.085938 144.835938 L 235.203125 144.835938 L 241.0625 150.71875 L 249 150.71875 C 249.320312 152.183594 250.625 153.28125 252.191406 153.28125 C 253.988281 153.28125 255.449219 151.816406 255.449219 150.011719 C 255.449219 148.210938 253.988281 146.738281 252.191406 146.738281 C 250.625 146.738281 249.320312 147.84375 249 149.308594 L 241.644531 149.308594 L 235.785156 143.433594 L 207.085938 143.433594 L 207.085938 139.140625 L 241.984375 139.140625 C 242.304688 140.613281 243.609375 141.710938 245.175781 141.710938 C 246.972656 141.710938 248.433594 140.246094 248.433594 138.433594 C 248.433594 136.628906 246.972656 135.167969 245.175781 135.167969 C 243.609375 135.167969 242.304688 136.265625 241.984375 137.738281 L 207.085938 137.738281 L 207.085938 133.441406 L 223.464844 133.441406 C 223.785156 134.90625 225.097656 136.011719 226.65625 136.011719 C 228.457031 136.011719 229.925781 134.539062 229.925781 132.738281 C 229.925781 130.933594 228.457031 129.460938 226.65625 129.460938 C 225.097656 129.460938 223.785156 130.566406 223.464844 132.03125 L 207.085938 132.03125 L 207.085938 131.980469 C 207.085938 130.523438 206.929688 129.105469 206.625 127.734375 L 226.949219 127.734375 L 236.765625 117.898438 L 242.964844 117.898438 C 243.289062 119.363281 244.589844 120.46875 246.15625 120.46875 C 247.957031 120.46875 249.417969 118.996094 249.417969 117.195312 C 249.417969 115.390625 247.957031 113.925781 246.15625 113.925781 C 244.589844 113.925781 243.289062 115.023438 242.964844 116.496094 L 236.183594 116.496094 L 226.367188 126.332031 L 206.257812 126.332031 C 203.832031 118.195312 196.296875 112.253906 187.390625 112.253906 C 178.5 112.253906 170.960938 118.195312 168.527344 126.332031 L 148.328125 126.332031 L 138.503906 116.496094 L 131.722656 116.496094 C 131.402344 115.023438 130.097656 113.925781 128.53125 113.925781 C 126.734375 113.925781 125.273438 115.390625 125.273438 117.195312 C 125.273438 118.996094 126.734375 120.46875 128.53125 120.46875 C 130.097656 120.46875 131.402344 119.363281 131.722656 117.898438 L 137.921875 117.898438 L 147.746094 127.734375 L 168.160156 127.734375 C 167.863281 129.105469 167.699219 130.523438 167.699219 131.980469 L 167.699219 132.03125 L 151.222656 132.03125 C 150.902344 130.566406 149.597656 129.460938 148.035156 129.460938 C 146.234375 129.460938 144.773438 130.933594 144.773438 132.738281 C 144.773438 134.539062 146.234375 136.011719 148.035156 136.011719 C 149.597656 136.011719 150.902344 134.90625 151.222656 133.441406 L 167.699219 133.441406 L 167.699219 137.738281 L 132.707031 137.738281 C 132.382812 136.265625 131.078125 135.167969 129.515625 135.167969 C 127.714844 135.167969 126.253906 136.628906 126.253906 138.433594 C 126.253906 140.246094 127.714844 141.710938 129.515625 141.710938 C 131.078125 141.710938 132.382812 140.613281 132.707031 139.140625 L 167.699219 139.140625 L 167.699219 143.433594 L 138.90625 143.433594 L 133.042969 149.308594 L 125.6875 149.308594 C 125.367188 147.84375 124.0625 146.738281 122.507812 146.738281 C 120.707031 146.738281 119.238281 148.210938 119.238281 150.011719 C 119.238281 151.816406 120.707031 153.28125 122.507812 153.28125 C 124.0625 153.28125 125.367188 152.183594 125.6875 150.71875 L 133.628906 150.71875 L 139.488281 144.835938 L 167.699219 144.835938 L 167.699219 145.691406 L 165.238281 145.691406 C 163.066406 145.691406 161.238281 147.144531 160.667969 149.132812 L 145.644531 149.132812 L 139.921875 154.867188 L 137.191406 154.867188 C 136.871094 153.402344 135.566406 152.296875 134.011719 152.296875 C 132.210938 152.296875 130.742188 153.769531 130.742188 155.570312 C 130.742188 157.375 132.210938 158.847656 134.011719 158.847656 C 135.566406 158.847656 136.871094 157.742188 137.191406 156.277344 L 140.503906 156.277344 L 146.226562 150.542969 L 160.476562 150.542969 L 160.476562 154.839844 L 155.285156 154.839844 C 154.953125 153.382812 153.648438 152.296875 152.101562 152.296875 C 150.304688 152.296875 148.832031 153.769531 148.832031 155.570312 C 148.832031 157.375 150.304688 158.847656 152.101562 158.847656 C 153.675781 158.847656 154.988281 157.722656 155.300781 156.242188 L 160.476562 156.242188 L 160.476562 160.535156 L 125.6875 160.535156 C 125.367188 159.074219 124.0625 157.96875 122.507812 157.96875 C 120.707031 157.96875 119.238281 159.4375 119.238281 161.242188 C 119.238281 163.046875 120.707031 164.511719 122.507812 164.511719 C 124.0625 164.511719 125.367188 163.414062 125.6875 161.949219 L 160.476562 161.949219 L 160.476562 166.242188 L 147.746094 166.242188 L 142.304688 171.6875 L 130.742188 171.6875 C 130.417969 170.226562 129.113281 169.117188 127.550781 169.117188 C 125.75 169.117188 124.289062 170.589844 124.289062 172.394531 C 124.289062 174.199219 125.75 175.660156 127.550781 175.660156 C 129.113281 175.660156 130.417969 174.5625 130.742188 173.101562 L 142.886719 173.101562 L 148.328125 167.644531 L 160.476562 167.644531 L 160.476562 171.941406 L 155.292969 171.941406 C 154.972656 170.46875 153.660156 169.371094 152.101562 169.371094 C 150.304688 169.371094 148.832031 170.835938 148.832031 172.648438 C 148.832031 174.449219 150.304688 175.914062 152.101562 175.914062 C 153.660156 175.914062 154.972656 174.816406 155.292969 173.34375 L 160.476562 173.34375 L 160.476562 177.640625 L 134.695312 177.640625 L 129.160156 183.199219 L 125.6875 183.199219 C 125.367188 181.726562 124.0625 180.628906 122.507812 180.628906 C 120.707031 180.628906 119.238281 182.089844 119.238281 183.894531 C 119.238281 185.707031 120.707031 187.171875 122.507812 187.171875 C 124.0625 187.171875 125.367188 186.074219 125.6875 184.601562 L 129.730469 184.601562 L 135.277344 179.050781 L 160.476562 179.050781 L 160.476562 184.070312 C 160.476562 186.707031 162.605469 188.84375 165.238281 188.84375 L 209.554688 188.84375 C 212.179688 188.84375 214.308594 186.707031 214.308594 184.070312 L 214.308594 179.050781 L 239.410156 179.050781 L 244.957031 184.601562 L 249 184.601562 C 249.320312 186.074219 250.625 187.171875 252.191406 187.171875 C 253.988281 187.171875 255.449219 185.707031 255.449219 183.894531 C 255.449219 182.089844 253.988281 180.628906 252.191406 180.628906 C 250.625 180.628906 249.320312 181.726562 249 183.199219 L 245.539062 183.199219 L 239.992188 177.640625 L 214.308594 177.640625 L 214.308594 173.34375 L 219.394531 173.34375 C 219.71875 174.816406 221.03125 175.914062 222.585938 175.914062 C 224.386719 175.914062 225.855469 174.449219 225.855469 172.648438 C 225.855469 170.835938 224.386719 169.371094 222.585938 169.371094 C 221.03125 169.371094 219.71875 170.46875 219.394531 171.941406 L 214.308594 171.941406 L 214.308594 167.644531 L 226.367188 167.644531 L 231.800781 173.101562 L 243.949219 173.101562 C 244.269531 174.5625 245.574219 175.660156 247.140625 175.660156 C 248.9375 175.660156 250.398438 174.199219 250.398438 172.394531 C 250.398438 170.589844 248.9375 169.117188 247.140625 169.117188 C 245.574219 169.117188 244.269531 170.226562 243.949219 171.6875 L 232.386719 171.6875 L 226.949219 166.242188 L 214.308594 166.242188 L 214.308594 161.949219 L 249 161.949219 " fill-opacity="1" fill-rule="nonzero"/></g><g fill="#000000" fill-opacity="1"><g transform="translate(121.642502, 235.644092)"><g><path d="M 21.660156 -30.824219 C 21.660156 -35.242188 19.3125 -37.589844 14.894531 -37.589844 L 3.101562 -37.589844 C 2.632812 -37.589844 2.347656 -37.308594 2.347656 -36.839844 L 2.347656 -0.75 C 2.347656 -0.28125 2.632812 0 3.101562 0 L 7.988281 0 C 8.457031 0 8.738281 -0.28125 8.738281 -0.75 L 8.738281 -12.59375 L 11.980469 -12.59375 L 15.128906 -0.65625 C 15.222656 -0.234375 15.460938 0 15.929688 0 L 20.816406 0 C 21.332031 0 21.613281 -0.28125 21.472656 -0.847656 L 18.230469 -13.15625 C 20.488281 -14.144531 21.660156 -16.210938 21.660156 -19.359375 Z M 8.738281 -18.796875 L 8.738281 -31.386719 L 13.390625 -31.386719 C 14.613281 -31.386719 15.269531 -30.730469 15.269531 -29.507812 L 15.269531 -20.675781 C 15.269531 -19.453125 14.613281 -18.796875 13.390625 -18.796875 Z M 8.738281 -18.796875 "/></g></g></g><g fill="#000000" fill-opacity="1"><g transform="translate(145.652648, 235.644092)"><g><path d="M 21.097656 -36.839844 C 21.097656 -37.308594 20.910156 -37.589844 20.347656 -37.589844 L 3.054688 -37.589844 C 2.632812 -37.589844 2.347656 -37.308594 2.347656 -36.839844 L 2.347656 -0.75 C 2.347656 -0.28125 2.632812 0 3.054688 0 L 20.347656 0 C 20.910156 0 21.097656 -0.28125 21.097656 -0.75 L 21.097656 -5.449219 C 21.097656 -5.96875 20.910156 -6.203125 20.347656 -6.203125 L 8.597656 -6.203125 L 8.597656 -15.695312 L 17.574219 -15.695312 C 18.042969 -15.695312 18.324219 -15.976562 18.324219 -16.492188 L 18.324219 -21.144531 C 18.324219 -21.660156 18.042969 -21.945312 17.574219 -21.945312 L 8.597656 -21.945312 L 8.597656 -31.339844 L 20.347656 -31.339844 C 20.910156 -31.339844 21.097656 -31.671875 21.097656 -32.140625 Z M 21.097656 -36.839844 "/></g></g></g><g fill="#000000" fill-opacity="1"><g transform="translate(169.098948, 235.644092)"><g><path d="M 2.160156 -37.589844 C 1.691406 -37.589844 1.410156 -37.308594 1.410156 -36.839844 L 1.410156 -32.140625 C 1.410156 -31.671875 1.691406 -31.386719 2.160156 -31.386719 L 7.613281 -31.386719 L 7.613281 -0.75 C 7.613281 -0.234375 7.894531 0 8.363281 0 L 13.25 0 C 13.769531 0 14.003906 -0.234375 14.003906 -0.75 L 14.003906 -31.386719 L 19.453125 -31.386719 C 19.96875 -31.386719 20.203125 -31.671875 20.203125 -32.140625 L 20.203125 -36.839844 C 20.203125 -37.308594 19.96875 -37.589844 19.453125 -37.589844 Z M 2.160156 -37.589844 "/></g></g></g><g fill="#000000" fill-opacity="1"><g transform="translate(190.712771, 235.644092)"><g><path d="M 3.101562 -37.589844 C 2.585938 -37.589844 2.347656 -37.308594 2.347656 -36.839844 L 2.347656 -0.75 C 2.347656 -0.28125 2.585938 0 3.101562 0 L 7.988281 0 C 8.457031 0 8.738281 -0.28125 8.738281 -0.75 L 8.738281 -36.839844 C 8.738281 -37.308594 8.457031 -37.589844 7.988281 -37.589844 Z M 3.101562 -37.589844 "/></g></g></g><g fill="#000000" fill-opacity="1"><g transform="translate(201.801606, 235.644092)"><g><path d="M 21.660156 -30.824219 C 21.660156 -35.242188 19.3125 -37.589844 14.894531 -37.589844 L 3.101562 -37.589844 C 2.632812 -37.589844 2.347656 -37.308594 2.347656 -36.839844 L 2.347656 -0.75 C 2.347656 -0.28125 2.632812 0 3.101562 0 L 7.988281 0 C 8.457031 0 8.738281 -0.28125 8.738281 -0.75 L 8.738281 -12.59375 L 11.980469 -12.59375 L 15.128906 -0.65625 C 15.222656 -0.234375 15.460938 0 15.929688 0 L 20.816406 0 C 21.332031 0 21.613281 -0.28125 21.472656 -0.847656 L 18.230469 -13.15625 C 20.488281 -14.144531 21.660156 -16.210938 21.660156 -19.359375 Z M 8.738281 -18.796875 L 8.738281 -31.386719 L 13.390625 -31.386719 C 14.613281 -31.386719 15.269531 -30.730469 15.269531 -29.507812 L 15.269531 -20.675781 C 15.269531 -19.453125 14.613281 -18.796875 13.390625 -18.796875 Z M 8.738281 -18.796875 "/></g></g></g><g fill="#000000" fill-opacity="1"><g transform="translate(225.811752, 235.644092)"><g><path d="M 24.996094 0 C 25.5625 0 25.75 -0.28125 25.65625 -0.796875 L 17.855469 -36.933594 C 17.761719 -37.402344 17.480469 -37.589844 17.058594 -37.589844 L 10.527344 -37.589844 C 10.101562 -37.589844 9.820312 -37.402344 9.726562 -36.933594 L 1.925781 -0.796875 C 1.785156 -0.28125 2.019531 0 2.539062 0 L 7.566406 0 C 7.988281 0 8.222656 -0.234375 8.316406 -0.65625 L 9.585938 -7.519531 L 17.949219 -7.519531 L 19.265625 -0.65625 C 19.359375 -0.234375 19.59375 0 20.015625 0 Z M 16.773438 -12.96875 L 10.761719 -12.96875 L 13.769531 -29.367188 Z M 16.773438 -12.96875 "/></g></g></g><g fill="#000000" fill-opacity="1"><g transform="translate(144.75417, 263.545852)"><g><path d="M 3.28125 -11.171875 C 3.28125 -10.617188 3.429688 -10.15625 3.734375 -9.78125 C 4.046875 -9.414062 4.441406 -9.144531 4.921875 -8.96875 C 5.410156 -8.800781 5.953125 -8.648438 6.546875 -8.515625 C 7.140625 -8.378906 7.734375 -8.226562 8.328125 -8.0625 C 8.921875 -7.894531 9.457031 -7.675781 9.9375 -7.40625 C 10.425781 -7.144531 10.820312 -6.75 11.125 -6.21875 C 11.4375 -5.695312 11.59375 -5.046875 11.59375 -4.265625 C 11.59375 -3.078125 11.132812 -2.039062 10.21875 -1.15625 C 9.3125 -0.28125 8.082031 0.15625 6.53125 0.15625 C 4.988281 0.15625 3.734375 -0.195312 2.765625 -0.90625 C 1.796875 -1.625 1.3125 -2.59375 1.3125 -3.8125 L 3.453125 -3.8125 C 3.515625 -3.113281 3.789062 -2.550781 4.28125 -2.125 C 4.769531 -1.707031 5.5 -1.5 6.46875 -1.5 C 7.4375 -1.5 8.207031 -1.742188 8.78125 -2.234375 C 9.351562 -2.734375 9.640625 -3.316406 9.640625 -3.984375 C 9.640625 -4.660156 9.484375 -5.175781 9.171875 -5.53125 C 8.867188 -5.894531 8.472656 -6.160156 7.984375 -6.328125 C 7.503906 -6.503906 6.96875 -6.65625 6.375 -6.78125 C 5.78125 -6.90625 5.1875 -7.054688 4.59375 -7.234375 C 4 -7.410156 3.457031 -7.632812 2.96875 -7.90625 C 2.488281 -8.175781 2.09375 -8.578125 1.78125 -9.109375 C 1.46875 -9.648438 1.3125 -10.316406 1.3125 -11.109375 C 1.3125 -12.398438 1.769531 -13.4375 2.6875 -14.21875 C 3.601562 -15.007812 4.796875 -15.40625 6.265625 -15.40625 C 7.742188 -15.40625 8.921875 -15.0625 9.796875 -14.375 C 10.671875 -13.695312 11.175781 -12.753906 11.3125 -11.546875 L 9.09375 -11.546875 C 9.03125 -12.148438 8.742188 -12.664062 8.234375 -13.09375 C 7.734375 -13.519531 7.050781 -13.734375 6.1875 -13.734375 C 5.332031 -13.734375 4.632812 -13.515625 4.09375 -13.078125 C 3.550781 -12.648438 3.28125 -12.015625 3.28125 -11.171875 Z M 3.28125 -11.171875 "/></g></g></g><g fill="#000000" fill-opacity="1"><g transform="translate(161.647869, 263.545852)"><g><path d="M 9.71875 -15.25 L 9.71875 -13.65625 L 3.65625 -13.65625 L 3.65625 -8.46875 L 9.0625 -8.46875 L 9.0625 -6.90625 L 3.65625 -6.90625 L 3.65625 -1.578125 L 9.71875 -1.578125 L 9.71875 0 L 1.65625 0 L 1.65625 -15.25 Z M 9.71875 -15.25 "/></g></g></g><g fill="#000000" fill-opacity="1"><g transform="translate(176.737887, 263.545852)"><g><path d="M 11.703125 -15.25 L 13.703125 -15.25 L 13.703125 0 L 11.703125 0 L 3.65625 -12.09375 L 3.65625 0 L 1.65625 0 L 1.65625 -15.25 L 3.65625 -15.25 L 11.703125 -3.140625 Z M 11.703125 -15.25 "/></g></g></g><g fill="#000000" fill-opacity="1"><g transform="translate(196.073149, 263.545852)"><g><path d="M 11.328125 -15.25 L 13.359375 -15.25 L 13.359375 0 L 11.328125 0 L 11.328125 -6.890625 L 3.65625 -6.890625 L 3.65625 0 L 1.65625 0 L 1.65625 -15.25 L 3.65625 -15.25 L 3.65625 -8.46875 L 11.328125 -8.46875 Z M 11.328125 -15.25 "/></g></g></g><g fill="#000000" fill-opacity="1"><g transform="translate(215.056469, 263.545852)"><g><path d="M 12.171875 0 L 10.984375 -3.34375 L 4.203125 -3.34375 L 3.015625 0 L 0.96875 0 L 6.515625 -15.25 L 8.71875 -15.25 L 14.234375 0 Z M 4.78125 -4.921875 L 10.40625 -4.921875 L 7.59375 -12.796875 Z M 4.78125 -4.921875 "/></g></g></g></svg>